# xmcd
#
# Track frame offsets: 
#        150
#        29460
#        64016
#        89439
#        122824
#        160432
#        170438
#        201403
#        225753
#        247154
#        260476
#        304477
#
# Disc length: 4088 seconds
#
# Revision: 0
# Processed by: cddbd v1.5.2PL0 Copyright (c) Steve Scherf et al.
# Submitted via: ExactAudioCopy v0.99pb5
#
DISCID=a90ff60c
DTITLE=Jean-Pierre Froidebise - The mind parasites - CD
DYEAR=2010
DGENRE=Blues
TTITLE0=Mama don't like it
TTITLE1=John the revelator
TTITLE2=Come on in my kitchen
TTITLE3=Like a rolling stone
TTITLE4=The mind parasites
TTITLE5=Good morning
TTITLE6=I remember Rory
TTITLE7=No good man
TTITLE8=Freedom jazz dance
TTITLE9=Amazing grace
TTITLE10=Medley Hendrix (Message to love, changes, Izabella)
TTITLE11=Good night
EXTD=
EXTT0=
EXTT1=
EXTT2=
EXTT3=
EXTT4=
EXTT5=
EXTT6=
EXTT7=
EXTT8=
EXTT9=
EXTT10=
EXTT11=
PLAYORDER=
